# xmcd
#
# Track frame offsets:
#	150
#	13840
#	24902
#	35867
#	48505
#	63315
#	78542
#	93170
#	110252
#	131837
#	147900
#	160287
#	180482
#	194277
#	210810
#	222912
#
# Disc length: 3209 seconds
#
# Revision: 0
# Processed by: cddbd v1.5.2PL0 Copyright (c) Steve Scherf et al.
# Submitted via: audiograbber 1.83.01
#
DISCID=da0c8710
DTITLE=Claudia de Colombia - 30 Grandes Éxitos de Oro 2
DYEAR=2001
DGENRE=Ballad
TTITLE0=Amarguras
TTITLE1=Tú me haces falta
TTITLE2=El cóndor
TTITLE3=La sombra
TTITLE4=Pasillaneando
TTITLE5=Cuando voy por la calle
TTITLE6=Amor se escribe con llanto
TTITLE7=Vasija de barro
TTITLE8=Rio Badillo
TTITLE9=Grande, grande
TTITLE10=Acibar en los labios
TTITLE11=Por el viejo camino
TTITLE12=Es un laberinto mi vida sin tí
TTITLE13=Ay destino, ay amigo
TTITLE14=Tengo ganas de tí
TTITLE15=Tu alma golondrina
EXTD=
EXTT0=
EXTT1=
EXTT2=
EXTT3=
EXTT4=
EXTT5=
EXTT6=
EXTT7=
EXTT8=
EXTT9=
EXTT10=
EXTT11=
EXTT12=
EXTT13=
EXTT14=
EXTT15=
PLAYORDER=
